<svg width="25" height="25" viewBox="0 0 25 25" fill="none" xmlns="http://www.w3.org/2000/svg">
<path d="M4.78434 16.2928C1.21109 12.0083 -0.487189 7.58587 0.121442 4.17796V4.02037C1.94733 -0.786147 7.1796 -0.904339 7.97474 1.67621L9.54541 6.28574C9.67133 6.6657 9.68935 7.07333 9.59746 7.46299C9.50557 7.85265 9.3074 8.20895 9.02512 8.49201L7.45446 10.0679C8.90205 13.2595 11.4456 15.8221 14.6206 17.2875L15.9458 15.9579C16.208 15.6938 16.5339 15.5023 16.8917 15.4022C17.2496 15.3021 17.6272 15.2967 17.9877 15.3866L23.2887 16.7064C25.8017 17.4254 25.9784 22.6161 20.864 24.7534C15.5434 26.2407 8.46558 20.6955 4.78434 16.2928Z" fill="white"/>
</svg>
