<svg width="12" height="12" viewBox="0 0 12 12" fill="none" xmlns="http://www.w3.org/2000/svg">
<path fill-rule="evenodd" clip-rule="evenodd" d="M6 0C2.6916 0 0 2.69152 0 6C0 9.30848 2.6916 12 6 12C9.3084 12 12 9.30848 12 6C12 2.69152 9.30842 0 6 0ZM9.62212 2.73265L9.78482 3.40137C9.83173 3.58633 9.83493 3.77966 9.79417 3.96607C9.75341 4.15247 9.66982 4.32683 9.55 4.47533L6.01883 8.93928C5.90314 9.08887 5.75441 9.20966 5.58428 9.29222C5.41415 9.37477 5.22722 9.41685 5.03813 9.41515C5.02813 9.41515 5.01792 9.41515 5.0078 9.41492C4.81355 9.4127 4.62261 9.36438 4.45069 9.27395C4.27876 9.18351 4.13076 9.05355 4.01888 8.89475L2.21388 6.39225C2.19489 6.36594 2.18282 6.33529 2.17878 6.3031C2.17473 6.27091 2.17885 6.23822 2.19074 6.20804C2.20263 6.17785 2.22192 6.15114 2.24683 6.13036C2.27174 6.10958 2.30147 6.09539 2.3333 6.0891L3.52503 5.85322C3.73151 5.81021 3.94559 5.82095 4.14674 5.88442C4.34788 5.9479 4.52935 6.06198 4.67375 6.21572L5.18512 6.74968L9.29727 2.64145C9.32158 2.61719 9.3519 2.59984 9.38513 2.59116C9.41836 2.58249 9.4533 2.58281 9.48636 2.59209C9.51942 2.60138 9.54942 2.61928 9.57328 2.64398C9.59714 2.66868 9.61399 2.69929 9.62212 2.73265Z" fill="#F8633A"/>
</svg>
