<svg width="14" height="25" viewBox="0 0 14 25" fill="none" xmlns="http://www.w3.org/2000/svg">
<path d="M13.8255 6.58053C14.0129 6.78085 14.0494 7.0012 13.9348 7.24159L5.49977 24.6244C5.36439 24.8748 5.1457 25 4.84371 25C4.80205 25 4.72916 24.99 4.62502 24.97C4.44799 24.9199 4.31521 24.8247 4.2267 24.6845C4.13818 24.5443 4.11475 24.394 4.15641 24.2338L7.23364 12.0944L0.891726 13.6118C0.850071 13.6218 0.787589 13.6268 0.70428 13.6268C0.516834 13.6268 0.355422 13.5717 0.220045 13.4615C0.032599 13.3113 -0.0350894 13.116 0.0169788 12.8756L3.15669 0.480769C3.19835 0.340545 3.28166 0.22536 3.40662 0.135216C3.53159 0.045072 3.67738 0 3.844 0H8.96751C9.16537 0 9.33199 0.0626001 9.46737 0.1878C9.60275 0.313001 9.67043 0.460737 9.67043 0.63101C9.67043 0.711138 9.6444 0.801282 9.59233 0.901442L6.92123 7.85757L13.1069 6.38522C13.1902 6.36518 13.2527 6.35517 13.2944 6.35517C13.4922 6.35517 13.6693 6.43029 13.8255 6.58053Z" fill="#E83729"/>
</svg>
