<svg width="83" height="103" viewBox="0 0 83 103" fill="none" xmlns="http://www.w3.org/2000/svg">
<path d="M68.0822 54.0683L54.6367 49.2653L74.7284 15.3584C75.2017 14.0335 73.7864 13.5279 72.8421 13.9376L19.4814 44.924C18.5371 45.3337 18.7715 46.9114 19.4791 47.1642L32.9247 51.9671L12.833 85.874C12.3597 87.1989 13.775 87.7045 14.7193 87.2949L68.08 56.3084C69.0243 55.8987 69.4975 54.5738 68.0822 54.0683Z" fill="#FFF09C"/>
<path d="M63.0111 54.8034L49.5655 50.0004L69.6572 16.0935C70.1305 14.7686 68.7152 14.263 67.7709 14.6727L14.4102 45.6591C13.4659 46.0688 13.7003 47.6465 14.408 47.8993L27.8535 52.7022L7.76178 86.6091C7.2885 87.9341 8.70382 88.4396 9.64812 88.03L63.0088 57.0435C63.9531 56.6338 64.4264 55.3089 63.0111 54.8034Z" fill="url(#paint0_linear_1_5892)"/>
<defs>
<linearGradient id="paint0_linear_1_5892" x1="56.0712" y1="32.5" x2="8.57116" y2="85.5" gradientUnits="userSpaceOnUse">
<stop stop-color="#FFDE21"/>
<stop offset="1" stop-color="#FFB031"/>
</linearGradient>
</defs>
</svg>
